<?xml version="1.0" encoding="utf-8"?>
<!-- Generator: Adobe Illustrator 22.1.0, SVG Export Plug-In . SVG Version: 6.00 Build 0)  -->
<svg version="1.1" id="Layer_1" xmlns="http://www.w3.org/2000/svg" xmlns:xlink="http://www.w3.org/1999/xlink" x="0px" y="0px"
	 viewBox="0 0 468 288" style="enable-background:new 0 0 468 288;" xml:space="preserve">
<style type="text/css">
	.st0{opacity:0.5;clip-path:url(#SVGID_3_);fill:url(#SVGID_4_);}
	.st1{clip-path:url(#SVGID_3_);}
	.st2{fill:url(#SVGID_5_);}
	.st3{fill:url(#SVGID_6_);}
	.st4{fill:url(#SVGID_7_);}
	.st5{fill:url(#SVGID_8_);}
	.st6{fill:url(#SVGID_9_);}
	.st7{fill:#FFFFFF;}
</style>
<g>
	<g>
		<defs>
			<rect id="SVGID_1_" width="468" height="288"/>
		</defs>
		<linearGradient id="SVGID_2_" gradientUnits="userSpaceOnUse" x1="189.8353" y1="273.4307" x2="305.1686" y2="-64.5693">
			<stop  offset="0" style="stop-color:#0C042E"/>
			<stop  offset="0.3302" style="stop-color:#221C3A"/>
			<stop  offset="1" style="stop-color:#575757"/>
		</linearGradient>
		<use xlink:href="#SVGID_1_"  style="overflow:visible;fill:url(#SVGID_2_);"/>
		<clipPath id="SVGID_3_">
			<use xlink:href="#SVGID_1_"  style="overflow:visible;"/>
		</clipPath>
		<linearGradient id="SVGID_4_" gradientUnits="userSpaceOnUse" x1="107.4269" y1="-33.2307" x2="225.427" y2="167.7694">
			<stop  offset="0" style="stop-color:#000000"/>
			<stop  offset="0.2295" style="stop-color:#050505"/>
			<stop  offset="0.4926" style="stop-color:#131313"/>
			<stop  offset="0.7711" style="stop-color:#292929"/>
			<stop  offset="1" style="stop-color:#424242"/>
		</linearGradient>
		<path class="st0" d="M-29.6,24.6c24.8-42,61-49.4,105.1-47.9c37.7,1.3,78.5,11.6,113.1-2.5c34.5-14.1,58.2-39.7,95.5-37.8
			c50.1,2.6,72.1,42.5,69.5,81.5c-3.6,54-50.2,81-96.8,77.6c-38.5-2.9-79.4-6.7-113.5,17.9c-31.4,22.7-52.2,72.8-96.2,73.9
			C-2.7,188.5-75.4,102.3-29.6,24.6z"/>
		<g class="st1">
			
				<linearGradient id="SVGID_5_" gradientUnits="userSpaceOnUse" x1="50.9092" y1="313.9164" x2="163.5772" y2="505.834" gradientTransform="matrix(0.9736 -0.2284 0.2284 0.9736 -130.1004 -305.3781)">
				<stop  offset="0" style="stop-color:#0C042E"/>
				<stop  offset="0.3302" style="stop-color:#221C3A"/>
				<stop  offset="1" style="stop-color:#575757"/>
			</linearGradient>
			<path class="st2" d="M-123.6,72.2c13.9-44.5,46-59.3,87.2-67.4c35.3-7,75.5-6.3,104.6-27c29-20.6,45.4-49.6,80.5-56
				c47.1-8.5,76.3,23.8,82.4,60.6c8.5,51-29,86.3-73,93.2c-36.5,5.8-75.2,11.1-101.6,41.4c-24.3,28-32.6,79.1-73.3,89.7
				C-62.9,218.8-149.2,154.5-123.6,72.2z"/>
			<linearGradient id="SVGID_6_" gradientUnits="userSpaceOnUse" x1="330.4013" y1="170.6225" x2="416.4014" y2="279.2891">
				<stop  offset="0" style="stop-color:#0C042E"/>
				<stop  offset="0.3302" style="stop-color:#221C3A"/>
				<stop  offset="1" style="stop-color:#575757"/>
			</linearGradient>
			<path class="st3" d="M495.9,214c-22.9,27.8-66,19.4-99,31.3c-38,13.6-68.4,36.6-106.3,54.7c-36.7,17.6-98.5-11.9-55.8-73.2
				c16.8-24.1,32.7-41.5,43.9-70.2c12.4-32,20.5-60.8,52.1-75.6C410.6,43.5,558.7,138,495.9,214z"/>
			<linearGradient id="SVGID_7_" gradientUnits="userSpaceOnUse" x1="41.9454" y1="189.9199" x2="73.2787" y2="245.2532">
				<stop  offset="0" style="stop-color:#FC9512"/>
				<stop  offset="0.3533" style="stop-color:#FD5F35"/>
				<stop  offset="0.7913" style="stop-color:#FE225C"/>
				<stop  offset="1" style="stop-color:#FF0A6C"/>
			</linearGradient>
			<path class="st4" d="M105.3,170.8c19.5-19.3-2.7-38.5-27.9-15.8c-17.2,15.5-26.3,38.4-40.8,55.2c-13.4,15.5-29.9,8.8-46.9,15.1
				c-36.3,13.4,30,61.2,60.7,44.9c21.5-11.4,18.4-42.1,23.6-60.2C79.7,190.8,92.2,183.8,105.3,170.8z"/>
			<linearGradient id="SVGID_8_" gradientUnits="userSpaceOnUse" x1="381.1947" y1="43.5865" x2="305.8613" y2="139.5864">
				<stop  offset="0" style="stop-color:#0C042E"/>
				<stop  offset="0.3302" style="stop-color:#221C3A"/>
				<stop  offset="1" style="stop-color:#575757"/>
			</linearGradient>
			<path class="st5" d="M286.5,22.2c18.5-21.9,52.7-14.9,79.1-24.1c30.4-10.5,54.8-28.6,85.2-42.7c29.4-13.7,78.4,10.3,43.9,58.8
				c-13.6,19.1-26.4,32.8-35.6,55.6c-10.2,25.4-16.9,48.3-42.2,59.8C353,158.8,235.8,82.3,286.5,22.2z"/>
			
				<linearGradient id="SVGID_9_" gradientUnits="userSpaceOnUse" x1="521.1617" y1="60.0995" x2="474.0015" y2="-13.3468" gradientTransform="matrix(0.9638 2.950000e-02 2.950000e-02 0.9759 -46.0605 37.0443)">
				<stop  offset="0" style="stop-color:#FC9512"/>
				<stop  offset="0.3533" style="stop-color:#FD5F35"/>
				<stop  offset="0.7913" style="stop-color:#FE225C"/>
				<stop  offset="1" style="stop-color:#FF0A6C"/>
			</linearGradient>
			<path class="st6" d="M511.9,19.5c3.3-16.4,17.6-24.2,19.6-41.5c4.4-37.7-33.5-58-50.9-29.2c-8.9,14.6-12.2,32.9-22.8,46.3
				c-10.7,13.6-27,15.5-40.3,25.3c-24.4,18-31.5,51.3-61.1,64.8c-68.3,31.3-65.5,71.6-15.5,73.6c41.8,1.7,53.2-54.2,106.9-53.4
				C535.2,106.6,504.7,55.2,511.9,19.5z"/>
			<g>
				<path class="st7" d="M179.2,320.3c-0.4,0-0.7,0-1.1,0c-23.8-0.4-38.7-7.3-40.7-18.8c-1.6-9.2,5-20.6,18.7-32.2
					c15.1-12.9,38.3-25.5,67.1-36.7c24.3-9.4,41.7-26.4,58.5-42.8c13-12.7,26.4-25.8,43-35.3c8.1-4.7,16.6-8,24.7-11.2
					c12.9-5,25.1-9.8,36.3-19.7c10.4-9.1,18.4-20.3,26.2-31c5.9-8.2,12-16.6,19.1-24.2c17.8-18.9,37.4-19.8,48.9-12.4
					c10.3,6.6,17.8,22.1,8,45.8c-4.5,10.9-12.6,18.8-20.5,26.4c-7.1,6.9-14.4,13.9-19,23.1l-0.2-0.1l0.2,0.1
					c-5.2,10.3-7.9,21.8-10.5,32.9c-4,17.2-8.1,35-22,48.2c-15.4,14.7-41.7,21.9-80.4,22.2c-36.8,0.2-63,18.5-88.5,36.1
					C225.1,305.9,204.3,320.3,179.2,320.3z M464.4,52.2c-10.1,0-21.9,4.7-33,16.5c-7.1,7.5-13.2,16-19.1,24.2
					c-7.8,10.8-15.8,22-26.3,31.1c-11.3,9.9-23.5,14.7-36.4,19.8c-8.1,3.2-16.5,6.5-24.6,11.2c-16.5,9.5-29.9,22.6-42.9,35.2
					c-16.9,16.4-34.3,33.4-58.7,42.9c-28.7,11.1-51.8,23.8-66.9,36.6c-13.5,11.5-20.1,22.8-18.5,31.8c2,11.3,16.7,18,40.3,18.4
					c0.4,0,0.7,0,1.1,0c24.9,0,45.6-14.4,67.6-29.6c25.5-17.7,51.8-36,88.7-36.2c38.5-0.2,64.7-7.4,80-22
					c13.7-13,17.8-30.8,21.8-47.9c2.6-11.1,5.3-22.6,10.5-33c4.7-9.3,12-16.4,19.1-23.3c7.9-7.6,16-15.5,20.4-26.3
					c9.6-23.4,2.3-38.7-7.8-45.2C475.5,53.8,470.3,52.2,464.4,52.2z"/>
			</g>
			<g>
				<path class="st7" d="M4,208.1c-0.7,0-1.3,0-2,0c-13.2-0.4-24.1-5.7-29.9-14.3c-8.4-12.6-5.6-33.4,19.9-51.3l0.1,0.2l-0.1-0.2
					c8.5-5.9,16.7-11.1,24.7-16.1c26.5-16.6,49.4-31,65.7-64.4c5.4-11.1,9.7-24.6,14.2-38.8c12.1-38.2,25.9-81.6,66.7-95
					c39.6-13,92.3,14.9,124.4,46.4c24.6,24.1,36.4,48.4,31.3,65c-3.3,10.7-13.1,17.7-29.4,20.7c-15.7,2.9-30.5,1.8-44.9,0.6
					c-25-2-48.6-3.8-72.8,16.2c-17.4,14.4-33.3,32-48.7,49.1c-21.4,23.8-43.6,48.5-71,65.8C35.5,202.5,18.8,208.1,4,208.1z
					 M184.8-74.6c-7.4,0-14.6,1-21.4,3.2C122.9-58,109.2-14.8,97.1,23.3c-4.5,14.3-8.8,27.8-14.2,38.9c-16.3,33.6-39.3,48-65.9,64.7
					C9,131.9,0.8,137-7.7,143c-25.1,17.7-28,38.1-19.7,50.6c11.2,16.8,42.1,21.5,79.4-2.1c27.3-17.3,49.5-41.9,70.9-65.7
					c15.4-17.1,31.3-34.8,48.7-49.2c24.4-20.1,48-18.2,73.1-16.3c14.3,1.1,29.1,2.3,44.8-0.6c16-3,25.8-9.8,29-20.3
					c4.9-16.2-7-40.9-31.2-64.5C260.8-51,220.3-74.6,184.8-74.6z"/>
			</g>
		</g>
	</g>
</g>
</svg>
