<svg id="Capa_1" data-name="Capa 1" xmlns="http://www.w3.org/2000/svg" viewBox="0 0 338.66 277.07"><defs><style>.cls-1{fill:#009cde;}.cls-2{fill:#020101;stroke-width:3px;}.cls-2,.cls-3,.cls-4{stroke:#1f140f;stroke-miterlimit:10;}.cls-3,.cls-4{fill:#1f140f;}.cls-3{stroke-width:2px;}.cls-4{font-size:36px;stroke-width:0.5px;font-family:UnicaOne-Regular, Unica One;}</style></defs><title>logo</title><circle class="cls-1" cx="280.8" cy="94.66" r="34.36"/><path class="cls-2" d="M378.29,360.77a39.16,39.16,0,1,0,54.64,9A39.15,39.15,0,0,0,378.29,360.77Zm40.6,56.54a30.45,30.45,0,1,1,7-42.5A30.46,30.46,0,0,1,418.89,417.31Z" transform="translate(-120.53 -297.69)"/><rect class="cls-2" x="260.25" y="359.06" width="8.7" height="128.03" rx="4.35" ry="4.35" transform="translate(-316.25 318.01) rotate(-80.68)"/><path class="cls-2" d="M410.28,336.76l-68-11.16a4.34,4.34,0,0,0-5,3.6h0a4.35,4.35,0,0,0,3.58,5l68,11.17.64.1a47.86,47.86,0,1,1-16.13,94.35l-42.88-7a4.34,4.34,0,0,0-5,3.58h0a4.35,4.35,0,0,0,3.59,5l42.87,7a56.56,56.56,0,1,0,18.31-111.62Z" transform="translate(-120.53 -297.69)"/><rect class="cls-2" x="291.3" y="296.54" width="8.7" height="51.65" rx="4.35" ry="4.35" transform="translate(-190.86 264.24) rotate(-80.68)"/><rect class="cls-2" x="213.73" y="267.58" width="8.7" height="84.12" rx="4.35" ry="4.35" transform="translate(-243.31 177.04) rotate(-80.68)"/><rect class="cls-2" x="152.7" y="325.4" width="8.7" height="19" rx="4.35" ry="4.35" transform="translate(-319.39 137.98) rotate(-80.68)"/><rect class="cls-2" x="210.52" y="317.52" width="8.7" height="53.73" rx="4.35" ry="4.35" transform="translate(-280.28 202.98) rotate(-80.68)"/><rect class="cls-2" x="322.94" y="287.47" width="8.7" height="150.74" rx="4.35" ry="4.35" transform="translate(-204.28 329.39) rotate(-80.68)"/><rect class="cls-2" x="362.08" y="380.87" width="8.7" height="47.31" rx="4.35" ry="4.35" transform="translate(-212.6 402.95) rotate(-80.68)"/><rect class="cls-2" x="326.6" y="394.65" width="8.7" height="8.07" rx="4.04" ry="4.04" transform="translate(-236.58 363.05) rotate(-80.68)"/><rect class="cls-2" x="282.87" y="361.24" width="8.7" height="60.56" rx="4.35" ry="4.35" transform="translate(-266.17 313.89) rotate(-80.68)"/><rect class="cls-2" x="197.06" y="365.76" width="8.7" height="23.36" rx="4.35" ry="4.35" transform="translate(-324.18 217.44) rotate(-80.69)"/><rect class="cls-2" x="204.01" y="303.44" width="8.7" height="44.48" rx="4.35" ry="4.35" transform="translate(-267.29 180.89) rotate(-80.68)"/><rect class="cls-2" x="269.6" y="302.8" width="8.7" height="67.29" rx="4.35" ry="4.35" transform="translate(-222.94 254.63) rotate(-80.68)"/><path class="cls-2" d="M407.47,353.94l-59.09-9.69a4.35,4.35,0,0,0-5,3.58h0a4.35,4.35,0,0,0,3.59,5l59.07,9.69a30.46,30.46,0,1,1-9.86,60.11L312,408.81a4.35,4.35,0,0,0-5,3.59h0a4.34,4.34,0,0,0,3.59,5l84.22,13.82a39.15,39.15,0,1,0,12.68-77.27Z" transform="translate(-120.53 -297.69)"/><rect class="cls-2" x="283.63" y="403.44" width="8.7" height="11.69" rx="4.35" ry="4.35" transform="matrix(0.16, -0.99, 0.99, 0.16, -283.02, 329.59)"/><rect class="cls-2" x="208.69" y="337.56" width="8.7" height="118.86" rx="4.35" ry="4.35" transform="translate(-333.73 245.27) rotate(-80.68)"/><rect class="cls-2" x="395.27" y="382.01" width="8.7" height="20.58" rx="4.35" ry="4.35" transform="translate(-172.71 425.49) rotate(-80.69)"/><rect class="cls-2" x="336.05" y="342.37" width="8.7" height="80.53" rx="4.35" ry="4.35" transform="translate(-212.82 358.91) rotate(-80.68)"/><rect class="cls-2" x="281.42" y="367.5" width="8.7" height="12.3" rx="4.35" ry="4.35" transform="translate(-249.75 297.48) rotate(-80.68)"/><rect class="cls-2" x="206.47" y="300.79" width="8.7" height="121.13" rx="4.35" ry="4.35" transform="matrix(0.16, -0.99, 0.99, 0.16, -300.43, 213.21)"/><rect class="cls-2" x="126.35" y="339.49" width="8.7" height="17.45" rx="4.35" ry="4.35" transform="translate(-354.62 123.08) rotate(-80.68)"/><path class="cls-3" d="M168.42,527.71a26.25,26.25,0,0,1-9.29-35.47,26,26,0,0,1,9.29-9.47,25.31,25.31,0,0,1,23.25-1.26,25.74,25.74,0,0,1,8.42,6.14,1,1,0,0,1,.29.73,1,1,0,0,1-.36.79l-5.21,4.48a1.07,1.07,0,0,1-.79.37.9.9,0,0,1-.73-.37,16.52,16.52,0,0,0-5.45-3.94,16,16,0,0,0-6.62-1.41,15.78,15.78,0,0,0-8.28,2.28,17,17,0,0,0-6,6.18,17.08,17.08,0,0,0,6,23.1,16.24,16.24,0,0,0,14.57,1,16.85,16.85,0,0,0,5.28-3.58,2,2,0,0,1,1.37-.58,1.36,1.36,0,0,1,1,.36l1.38,1.16,2.89,2.6a1.6,1.6,0,0,1,.72,1.37,1.19,1.19,0,0,1-.36.87,25.11,25.11,0,0,1-18.58,8.1A24.7,24.7,0,0,1,168.42,527.71Z" transform="translate(-120.53 -297.69)"/><path class="cls-3" d="M211.88,516.1a26.71,26.71,0,0,1-.91-19.81,26.28,26.28,0,0,1,12.76-14.53,25.68,25.68,0,0,1,10.05-2.64h.15a1.33,1.33,0,0,1,1,.43,1.94,1.94,0,0,1,.47,1.09v6.29c0,.92-.51,1.42-1.52,1.52a16.43,16.43,0,0,0-6.22,1.84,15.13,15.13,0,0,0-5,4.16,16.57,16.57,0,0,0-3.9,10.77,16.81,16.81,0,0,0,1.51,7A16.25,16.25,0,0,0,224.6,518a16.62,16.62,0,0,0,17.64,2.38,15.15,15.15,0,0,0,5.64-4.41,16,16,0,0,0,2.93-5.09,17.1,17.1,0,0,0,1-5.68,16.66,16.66,0,0,0-1.81-7.66,3.24,3.24,0,0,1-.36-1.45,2.11,2.11,0,0,1,.87-1.66c.38-.24,1.13-.75,2.24-1.52l2.1-1.45a2,2,0,0,1,1.08-.36,1.84,1.84,0,0,1,1.73,1.09,25.88,25.88,0,0,1,3.48,13.08,26.49,26.49,0,0,1-1.52,8.86,25.21,25.21,0,0,1-4.49,7.85,23.27,23.27,0,0,1-8.85,7,26.43,26.43,0,0,1-11.1,2.42,25.44,25.44,0,0,1-8.82-1.55,23.13,23.13,0,0,1-7.59-4.52A25.69,25.69,0,0,1,211.88,516.1Z" transform="translate(-120.53 -297.69)"/><path class="cls-3" d="M312.67,480.46a1.39,1.39,0,0,1,.36,1v47.73a1.28,1.28,0,0,1-.36.94,1.2,1.2,0,0,1-.87.36h-7.16a1.19,1.19,0,0,1-.87-.36,1.28,1.28,0,0,1-.36-.94V500.52c0-.43-.1-.65-.29-.65s-.36.17-.65.51c-.77,1.16-2,3-3.79,5.42s-3.05,4.24-3.87,5.35a5.16,5.16,0,0,1-1.19,1.23,3.19,3.19,0,0,1-1.56.29h-1.23a4.66,4.66,0,0,1-1.77-.22,3.16,3.16,0,0,1-1.05-.94l-7.88-11.06c-.19-.43-.41-.65-.65-.65s-.29.22-.29.65v9a1.28,1.28,0,0,1-.36.94,1.19,1.19,0,0,1-.87.36h-7.08a1.25,1.25,0,0,1-.91-.4,1.26,1.26,0,0,1-.4-.9v-28a1.34,1.34,0,0,1,.4-1,1.25,1.25,0,0,1,.91-.4h7.23a1,1,0,0,1,.54.25,1.59,1.59,0,0,1,.47.55l11,18.15a1.93,1.93,0,0,0,.4.43,1.2,1.2,0,0,0,.83.29h.07a1,1,0,0,0,.8-.36,3.66,3.66,0,0,0,.36-.51l10.91-17.93a4.75,4.75,0,0,1,.44-.62.75.75,0,0,1,.58-.25h7.3A1.13,1.13,0,0,1,312.67,480.46Z" transform="translate(-120.53 -297.69)"/><path class="cls-3" d="M326.15,488.41a1.3,1.3,0,0,1-.4-1v-6.22a1.19,1.19,0,0,1,.4-.94,1.32,1.32,0,0,1,.9-.36H360.6a1.35,1.35,0,0,1,1,.39,1.29,1.29,0,0,1,.4.91v6.22a1.41,1.41,0,0,1-.4.94,1.28,1.28,0,0,1-1,.43H327.05A1.24,1.24,0,0,1,326.15,488.41Zm0,41.72a1.21,1.21,0,0,1-.4-.9V495.82a1.22,1.22,0,0,1,.4-.94,1.32,1.32,0,0,1,.9-.36h6.15a1.27,1.27,0,0,1,.94.36,1.3,1.3,0,0,1,.36.94V501c0,.92.63,1.37,1.88,1.37H354.6a1.24,1.24,0,0,1,.87.33,1.07,1.07,0,0,1,.36.83v6.22a1.07,1.07,0,0,1-.36.83,1.24,1.24,0,0,1-.87.33H336.17c-1.11,0-1.67.5-1.67,1.51v7.88a1.52,1.52,0,0,0,1.38,1.38h24.87a1.28,1.28,0,0,1,.94.36,1.27,1.27,0,0,1,.36.94v6.22a1.29,1.29,0,0,1-.36.9,1.2,1.2,0,0,1-.94.4h-33.7A1.24,1.24,0,0,1,326.15,530.13Z" transform="translate(-120.53 -297.69)"/><path class="cls-3" d="M378.39,529.45V490.4a1.54,1.54,0,0,0-.51-1.19,1.69,1.69,0,0,0-1.23-.47h-4.12a.91.91,0,0,1-.65-.29,1,1,0,0,1-.29-.72V481a1,1,0,0,1,.29-.72.91.91,0,0,1,.65-.29h31.6a.91.91,0,0,1,.65.29,1,1,0,0,1,.29.72v6.73a1,1,0,0,1-.29.72.91.91,0,0,1-.65.29H390.61a1.71,1.71,0,0,0-1.23.5,1.6,1.6,0,0,0-.51,1.16v39.05a.84.84,0,0,1-.29.68,1,1,0,0,1-.65.25h-8.6A.83.83,0,0,1,378.39,529.45Z" transform="translate(-120.53 -297.69)"/><path class="cls-3" d="M440.64,530.2a1.58,1.58,0,0,1-.58-.75L436.45,516a2.21,2.21,0,0,0-.8-1.09,2,2,0,0,0-1.23-.43H423.51a1.1,1.1,0,0,1-.83-.33,1,1,0,0,1-.33-.76v-5.56a1.16,1.16,0,0,1,.33-.8,1.05,1.05,0,0,1,.83-.36h8.67a1.3,1.3,0,0,0,1.05-.47,1.07,1.07,0,0,0,.18-1.12l-4.05-14.75a1.75,1.75,0,0,0-.72-1,2,2,0,0,0-1.23-.44h-.5a1.91,1.91,0,0,0-1.16.44,1.75,1.75,0,0,0-.72,1L422.35,500a1.16,1.16,0,0,1-.54.65,1.18,1.18,0,0,1-.91.07l-6.79-1.66a1,1,0,0,1-.69-.51,1,1,0,0,1-.11-.87l4.56-16.7a1.65,1.65,0,0,1,.61-.79,1.55,1.55,0,0,1,.91-.37h15.54a1.75,1.75,0,0,1,.94.33,1.5,1.5,0,0,1,.65.76l13.31,48.59v.14a.77.77,0,0,1-.87.87h-7.38A1.54,1.54,0,0,1,440.64,530.2Z" transform="translate(-120.53 -297.69)"/><text class="cls-4" transform="translate(221.37 267.28)">eSTUDIO</text></svg>