<?xml version="1.0" encoding="utf-8"?>
<!-- Generator: Adobe Illustrator 22.1.0, SVG Export Plug-In . SVG Version: 6.00 Build 0)  -->
<svg version="1.1" id="Capa_1" xmlns="http://www.w3.org/2000/svg" xmlns:xlink="http://www.w3.org/1999/xlink" x="0px" y="0px"
	 viewBox="0 0 500 500" style="enable-background:new 0 0 500 500;" xml:space="preserve">
<style type="text/css">
	.st0{fill:#009BDD;}
	.st1{fill:#FFFFFF;stroke:#FFFFFF;stroke-width:4.3852;stroke-miterlimit:10;}
	.st2{fill:#FFFFFF;stroke:#FFFFFF;stroke-width:2.9235;stroke-miterlimit:10;}
	.st3{fill:#FFFFFF;stroke:#FFFFFF;stroke-width:0.7309;stroke-miterlimit:10;}
	.st4{font-family:'UnicaOne-Regular';}
	.st5{font-size:52.6226px;}
</style>
<g>
	<circle class="st0" cx="412.5" cy="184.9" r="50.2"/>
	<g>
		<g>
			<path class="st1" d="M378.8,138.8c-25.7,18.4-31.5,54.2-13.1,79.9c18.4,25.7,54.2,31.5,79.9,13.1c25.6-18.5,31.5-54.2,13.1-79.9
				C440.3,126.2,404.5,120.4,378.8,138.8z M438.2,221.4c-20,14.3-47.8,9.8-62.1-10.2s-9.8-47.8,10.2-62.1
				c20-14.3,47.8-9.8,62.1,10.2C462.7,179.3,458.1,207.1,438.2,221.4z"/>
		</g>
	</g>
	<g>
		<g>
			<path class="st1" d="M120.3,214.7L120.3,214.7c0.6-3.5,3.8-5.8,7.3-5.2l172.1,28.2c3.5,0.6,5.8,3.8,5.2,7.3l0,0
				c-0.6,3.5-3.8,5.8-7.3,5.2L125.6,222C122.1,221.5,119.7,218.2,120.3,214.7z"/>
		</g>
	</g>
	<g>
		<g>
			<path class="st1" d="M425.6,103.7l-99.4-16.3c-3.5-0.6-6.7,1.8-7.3,5.3v0c-0.6,3.5,1.8,6.7,5.2,7.3l99.4,16.3
				c0.3,0,0.6,0.1,0.9,0.2c38.1,6.5,63.7,42.7,57.2,80.7s-42.7,63.7-80.7,57.2L338.2,244c-3.5-0.6-6.7,1.8-7.3,5.2l0,0
				c-0.6,3.5,1.8,6.7,5.2,7.3l62.7,10.3c21.6,3.6,43.8-1.6,61.6-14.4c17.8-12.8,29.8-32.1,33.4-53.8
				C501.2,153.6,470.6,111.1,425.6,103.7z"/>
		</g>
	</g>
	<g>
		<g>
			<path class="st1" d="M220.8,76.5L220.8,76.5c0.6-3.5,3.8-5.8,7.3-5.2l62,10.2c3.5,0.6,5.8,3.8,5.2,7.3v0
				c-0.6,3.5-3.8,5.8-7.3,5.2l-62-10.2C222.5,83.3,220.2,80,220.8,76.5z"/>
		</g>
	</g>
	<g>
		<g>
			<path class="st1" d="M84,54.1L84,54.1c0.6-3.5,3.8-5.8,7.3-5.2l108.8,17.8c3.5,0.6,5.8,3.8,5.2,7.3v0c-0.6,3.5-3.8,5.8-7.3,5.2
				L89.2,61.4C85.8,60.8,83.4,57.6,84,54.1z"/>
		</g>
	</g>
	<g>
		<g>
			<path class="st1" d="M41.7,98.7L41.7,98.7c0.6-3.5,3.8-5.8,7.3-5.2l14.9,2.4c3.5,0.6,5.8,3.8,5.2,7.3v0c-0.6,3.5-3.8,5.8-7.3,5.2
				L47,106C43.5,105.5,41.2,102.2,41.7,98.7z"/>
		</g>
	</g>
	<g>
		<g>
			<path class="st1" d="M101.2,108.5L101.2,108.5c0.6-3.5,3.8-5.8,7.3-5.2l64.9,10.7c3.5,0.6,5.8,3.8,5.2,7.3v0
				c-0.6,3.5-3.8,5.8-7.3,5.2l-64.9-10.7C103,115.2,100.6,111.9,101.2,108.5z"/>
		</g>
	</g>
	<g>
		<g>
			<path class="st1" d="M195.6,124L195.6,124c0.6-3.5,3.8-5.8,7.3-5.2l204.9,33.6c3.5,0.6,5.8,3.8,5.2,7.3v0
				c-0.6,3.5-3.8,5.8-7.3,5.2l-204.9-33.6C197.3,130.7,195,127.5,195.6,124z"/>
		</g>
	</g>
	<g>
		<g>
			<path class="st1" d="M327.4,197.2L327.4,197.2c0.6-3.5,3.8-5.8,7.3-5.2l55.7,9.1c3.5,0.6,5.8,3.8,5.2,7.3l0,0
				c-0.6,3.5-3.8,5.8-7.3,5.2l-55.7-9.1C329.2,203.9,326.8,200.6,327.4,197.2z"/>
		</g>
	</g>
	<g>
		<g>
			<path class="st1" d="M303.7,193.7l0.1-0.9c0.5-3.2,3.6-5.4,6.8-4.9l0,0c3.2,0.5,5.4,3.6,4.9,6.8l-0.1,0.9
				c-0.5,3.2-3.6,5.4-6.8,4.9v0C305.4,200,303.2,196.9,303.7,193.7z"/>
		</g>
	</g>
	<g>
		<g>
			<path class="st1" d="M202,176.6L202,176.6c0.6-3.5,3.8-5.8,7.3-5.2l74.8,12.3c3.5,0.6,5.8,3.8,5.2,7.3v0
				c-0.6,3.5-3.8,5.8-7.3,5.2l-74.8-12.3C203.8,183.3,201.5,180,202,176.6z"/>
		</g>
	</g>
	<g>
		<g>
			<path class="st1" d="M103.4,160.4L103.4,160.4c0.6-3.5,3.8-5.8,7.3-5.2l21.2,3.5c3.5,0.6,5.8,3.8,5.2,7.3l0,0
				c-0.6,3.5-3.8,5.8-7.3,5.2l-21.2-3.5C105.2,167.1,102.9,163.9,103.4,160.4z"/>
		</g>
	</g>
	<g>
		<g>
			<path class="st1" d="M98.4,82.2L98.4,82.2c0.6-3.5,3.8-5.8,7.3-5.2l51.6,8.5c3.5,0.6,5.8,3.8,5.2,7.3v0c-0.6,3.5-3.8,5.8-7.3,5.2
				l-51.6-8.5C100.1,89,97.8,85.7,98.4,82.2z"/>
		</g>
	</g>
	<g>
		<g>
			<path class="st1" d="M177.8,95.3L177.8,95.3c0.6-3.5,3.8-5.8,7.3-5.2l84.5,13.9c3.5,0.6,5.8,3.8,5.2,7.3v0
				c-0.6,3.5-3.8,5.8-7.3,5.2L183,102.6C179.6,102,177.2,98.7,177.8,95.3z"/>
		</g>
	</g>
	<g>
		<g>
			<path class="st1" d="M421.5,128.8l-86.4-14.2c-3.5-0.6-6.7,1.8-7.3,5.2v0c-0.6,3.5,1.8,6.7,5.2,7.3l86.4,14.2
				c24.3,4,40.7,26.9,36.7,51.1s-26.9,40.7-51.1,36.7L281.9,209c-3.5-0.6-6.7,1.8-7.3,5.2l0,0c-0.6,3.5,1.8,6.7,5.2,7.3l123.1,20.2
				c15,2.5,30.3-1.1,42.7-10c12.3-8.9,20.6-22.2,23.1-37.2C473.8,163.4,452.7,133.9,421.5,128.8z"/>
		</g>
	</g>
	<g>
		<g>
			<path class="st1" d="M238.4,208.3L238.4,208.3c0.6-3.5,3.8-5.8,7.3-5.2l4.3,0.7c3.5,0.6,5.8,3.8,5.2,7.3l0,0
				c-0.6,3.5-3.8,5.8-7.3,5.2l-4.3-0.7C240.2,215.1,237.8,211.8,238.4,208.3z"/>
		</g>
	</g>
	<g>
		<g>
			<path class="st1" d="M51.6,177.7L51.6,177.7c0.6-3.5,3.8-5.8,7.3-5.2l158.9,26.1c3.5,0.6,5.8,3.8,5.2,7.3l0,0
				c-0.6,3.5-3.8,5.8-7.3,5.2L56.8,185C53.3,184.4,51,181.1,51.6,177.7z"/>
		</g>
	</g>
	<g>
		<g>
			<path class="st1" d="M395.2,182.5L395.2,182.5c0.6-3.5,3.8-5.8,7.3-5.2l17.1,2.8c3.5,0.6,5.8,3.8,5.2,7.3v0
				c-0.6,3.5-3.8,5.8-7.3,5.2l-17.1-2.8C396.9,189.2,394.6,185.9,395.2,182.5z"/>
		</g>
	</g>
	<g>
		<g>
			<path class="st1" d="M265.4,161.2L265.4,161.2c0.6-3.5,3.8-5.8,7.3-5.2l103.6,17c3.5,0.6,5.8,3.8,5.2,7.3v0
				c-0.6,3.5-3.8,5.8-7.3,5.2l-103.6-17C267.1,168,264.8,164.7,265.4,161.2z"/>
		</g>
	</g>
	<g>
		<g>
			<path class="st1" d="M234.7,156.2L234.7,156.2c0.6-3.5,3.8-5.8,7.3-5.2l5.2,0.9c3.5,0.6,5.8,3.8,5.2,7.3l0,0
				c-0.6,3.5-3.8,5.8-7.3,5.2l-5.2-0.9C236.5,162.9,234.1,159.6,234.7,156.2z"/>
		</g>
	</g>
	<g>
		<g>
			<path class="st1" d="M46.7,125.3L46.7,125.3c0.6-3.5,3.8-5.8,7.3-5.2l162.2,26.6c3.5,0.6,5.8,3.8,5.2,7.3v0
				c-0.6,3.5-3.8,5.8-7.3,5.2L51.9,132.6C48.4,132.1,46.1,128.8,46.7,125.3z"/>
		</g>
	</g>
	<g>
		<g>
			<path class="st1" d="M4.3,118.4L4.3,118.4c0.6-3.5,3.8-5.8,7.3-5.2l12.6,2.1c3.5,0.6,5.8,3.8,5.2,7.3l0,0
				c-0.6,3.5-3.8,5.8-7.3,5.2l-12.6-2.1C6.1,125.1,3.8,121.8,4.3,118.4z"/>
		</g>
	</g>
	<g>
		<path class="st2" d="M72.1,382.8c-5.7-3.4-10.2-8-13.6-13.8c-3.3-5.8-5-12.2-5-19.1c0-6.8,1.7-13.2,5-19
			c3.3-5.8,7.9-10.4,13.6-13.8c5.7-3.4,11.9-5.1,18.7-5.1c5.4,0,10.5,1.1,15.3,3.3c4.8,2.2,8.9,5.2,12.3,9c0.3,0.3,0.4,0.6,0.4,1.1
			c0,0.5-0.2,0.9-0.5,1.2l-7.6,6.6c-0.4,0.4-0.7,0.5-1.2,0.5c-0.4,0-0.8-0.2-1.1-0.5c-2.3-2.5-4.9-4.4-8-5.8
			c-3.1-1.4-6.3-2.1-9.7-2.1c-4.4,0-8.4,1.1-12.1,3.3c-3.7,2.2-6.6,5.2-8.8,9c-2.2,3.8-3.3,7.9-3.3,12.4c0,4.4,1.1,8.6,3.3,12.4
			c2.2,3.8,5.1,6.8,8.8,9c3.7,2.2,7.7,3.3,12.1,3.3c3.2,0,6.3-0.6,9.2-1.9c2.9-1.2,5.5-3,7.7-5.2c0.6-0.6,1.3-0.8,2-0.8
			c0.6,0,1.1,0.2,1.5,0.5l2,1.7l4.2,3.8c0.7,0.5,1.1,1.2,1.1,2c0,0.5-0.2,0.9-0.5,1.3c-3.5,3.7-7.5,6.6-12.2,8.7
			c-4.7,2.1-9.7,3.1-15,3.1C84,387.9,77.8,386.2,72.1,382.8z"/>
		<path class="st2" d="M135.6,365.9c-2.3-5.2-3.5-10.6-3.5-16.1c0-4.4,0.7-8.6,2.2-12.8c1.4-4.2,3.6-8,6.5-11.5
			c3.5-4.2,7.5-7.5,12.2-9.8c4.7-2.3,9.5-3.6,14.7-3.9h0.2c0.6,0,1,0.2,1.4,0.6c0.4,0.4,0.6,1,0.7,1.6v9.2c0,1.3-0.7,2.1-2.2,2.2
			c-3.2,0.3-6.2,1.2-9.1,2.7c-2.9,1.5-5.3,3.5-7.3,6.1c-3.8,4.6-5.7,9.9-5.7,15.7c0,3.5,0.7,6.9,2.2,10.2s3.6,6.1,6.3,8.4
			c4.7,3.8,9.9,5.7,15.6,5.7c3.5,0,6.9-0.7,10.1-2.2c3.2-1.5,6-3.6,8.2-6.4c1.9-2.3,3.3-4.7,4.3-7.5c1-2.7,1.4-5.5,1.4-8.3
			c0-4-0.9-7.7-2.6-11.2c-0.4-0.7-0.5-1.4-0.5-2.1c0-0.9,0.4-1.7,1.3-2.4c0.6-0.4,1.7-1.1,3.3-2.2c1.6-1.1,2.6-1.8,3.1-2.1
			c0.6-0.4,1.1-0.5,1.6-0.5c1.1,0,2,0.5,2.5,1.6c3.4,5.9,5.1,12.3,5.1,19.1c0,4.4-0.7,8.8-2.2,12.9c-1.5,4.2-3.7,8-6.6,11.5
			c-3.5,4.4-7.8,7.8-12.9,10.2c-5.2,2.4-10.6,3.5-16.2,3.5c-4.4,0-8.7-0.8-12.9-2.3c-4.2-1.5-7.9-3.7-11.1-6.6
			C141.2,375.5,137.9,371,135.6,365.9z"/>
		<path class="st2" d="M282.9,313.7c0.4,0.4,0.5,0.9,0.5,1.4v69.8c0,0.6-0.2,1-0.5,1.4c-0.4,0.4-0.8,0.5-1.3,0.5h-10.5
			c-0.5,0-0.9-0.2-1.3-0.5c-0.4-0.4-0.5-0.8-0.5-1.4v-41.9c0-0.6-0.1-1-0.4-1c-0.2,0-0.5,0.2-1,0.7c-1.1,1.7-3,4.3-5.5,7.9
			c-2.6,3.6-4.5,6.2-5.7,7.8c-0.7,0.9-1.3,1.5-1.7,1.8c-0.5,0.3-1.2,0.4-2.3,0.4H251c-1.3,0-2.1-0.1-2.6-0.3c-0.5-0.2-1-0.7-1.5-1.4
			L235.3,343c-0.3-0.6-0.6-1-1-1c-0.3,0-0.4,0.3-0.4,1v13.1c0,0.6-0.2,1-0.5,1.4c-0.4,0.4-0.8,0.5-1.3,0.5h-10.4
			c-0.5,0-0.9-0.2-1.3-0.6c-0.4-0.4-0.6-0.8-0.6-1.3v-40.9c0-0.6,0.2-1,0.6-1.4c0.4-0.4,0.8-0.6,1.3-0.6h10.6c0.2,0,0.5,0.1,0.8,0.4
			c0.3,0.2,0.5,0.5,0.7,0.8l16.1,26.5c0.1,0.1,0.3,0.4,0.6,0.6c0.3,0.3,0.7,0.4,1.2,0.4h0.1c0.5,0,0.9-0.2,1.2-0.5
			c0.3-0.4,0.5-0.6,0.5-0.7l16-26.2c0.2-0.4,0.4-0.7,0.6-0.9c0.2-0.2,0.5-0.4,0.8-0.4h0.1h10.6C282.1,313.2,282.5,313.4,282.9,313.7
			z"/>
		<path class="st2" d="M302.6,325.4c-0.4-0.4-0.6-0.9-0.6-1.4v-9.1c0-0.6,0.2-1,0.6-1.4c0.4-0.4,0.8-0.5,1.3-0.5h49
			c0.6,0,1,0.2,1.4,0.6c0.4,0.4,0.6,0.8,0.6,1.3v9.1c0,0.5-0.2,1-0.6,1.4c-0.4,0.4-0.9,0.6-1.4,0.6h-49
			C303.4,326,303,325.8,302.6,325.4z M302.6,386.4c-0.4-0.4-0.6-0.8-0.6-1.3v-48.8c0-0.6,0.2-1,0.6-1.4c0.4-0.4,0.8-0.5,1.3-0.5h9
			c0.6,0,1,0.2,1.4,0.5c0.4,0.4,0.5,0.8,0.5,1.4v7.6c0,1.3,0.9,2,2.7,2h26.6c0.5,0,0.9,0.2,1.3,0.5c0.4,0.3,0.5,0.7,0.5,1.2v9.1
			c0,0.5-0.2,0.9-0.5,1.2c-0.4,0.3-0.8,0.5-1.3,0.5h-27c-1.6,0-2.4,0.7-2.4,2.2V372c0,0.5,0.2,1,0.6,1.4c0.4,0.4,0.9,0.6,1.4,0.6
			h36.4c0.6,0,1,0.2,1.4,0.5c0.4,0.4,0.5,0.8,0.5,1.4v9.1c0,0.5-0.2,0.9-0.5,1.3c-0.4,0.4-0.8,0.6-1.4,0.6h-49.3
			C303.4,386.9,303,386.7,302.6,386.4z"/>
		<path class="st2" d="M379,385.4v-57.1c0-0.7-0.2-1.3-0.7-1.7c-0.5-0.5-1.1-0.7-1.8-0.7h-6c-0.4,0-0.7-0.1-1-0.4
			c-0.3-0.3-0.4-0.6-0.4-1.1v-9.8c0-0.4,0.1-0.8,0.4-1.1c0.3-0.3,0.6-0.4,1-0.4h46.2c0.4,0,0.7,0.1,1,0.4c0.3,0.3,0.4,0.6,0.4,1.1
			v9.8c0,0.4-0.1,0.8-0.4,1.1c-0.3,0.3-0.6,0.4-1,0.4h-19.8c-0.7,0-1.3,0.2-1.8,0.7c-0.5,0.5-0.7,1.1-0.7,1.7v57.1
			c0,0.4-0.1,0.8-0.4,1c-0.3,0.2-0.6,0.4-1,0.4h-12.6C379.4,386.7,379,386.3,379,385.4z"/>
		<path class="st2" d="M470,386.5c-0.4-0.3-0.7-0.7-0.8-1.1l-5.3-19.7c-0.2-0.6-0.6-1.2-1.2-1.6c-0.6-0.4-1.2-0.6-1.8-0.6h-16
			c-0.5,0-0.9-0.2-1.2-0.5c-0.3-0.3-0.5-0.7-0.5-1.1v-8.1c0-0.4,0.2-0.8,0.5-1.2c0.3-0.4,0.7-0.5,1.2-0.5h12.7
			c0.6,0,1.1-0.2,1.5-0.7c0.4-0.5,0.5-1,0.3-1.6l-5.9-21.6c-0.1-0.6-0.5-1.1-1.1-1.5c-0.6-0.4-1.2-0.6-1.8-0.6h-0.7
			c-0.6,0-1.1,0.2-1.7,0.6c-0.6,0.4-0.9,0.9-1.1,1.5l-3.9,14.2c-0.1,0.4-0.4,0.7-0.8,1c-0.4,0.2-0.8,0.2-1.3,0.1l-9.9-2.4
			c-0.4-0.1-0.8-0.3-1-0.7s-0.3-0.8-0.2-1.3l6.7-24.4c0.1-0.4,0.4-0.8,0.9-1.2c0.5-0.4,0.9-0.5,1.3-0.5h22.7c0.4,0,0.9,0.2,1.4,0.5
			c0.5,0.3,0.8,0.7,1,1.1l19.4,71v0.2c0,0.8-0.4,1.3-1.3,1.3h-10.8C470.8,386.9,470.4,386.8,470,386.5z"/>
	</g>
	<text transform="matrix(1 0 0 1 325.634 437.2798)" class="st3 st4 st5">eSTUDIO</text>
</g>
</svg>
